<svg width="320" height="186" fill="none" xmlns="http://www.w3.org/2000/svg"><path d="M39.214 145.67L0 154.317V186h320V0l-20.55 37.099-18.088 14.412-12.873 27.383-12.222 6.726h-17.436L219.44 97.15h-23.302l-49.701 18.014-32.265 6.726-20.695 6.726H60.56L39.215 145.67z" fill="#fff"/><path d="M122.697 134.115c.966 0 1.734.271 2.304.814.574.542.861 1.285.861 2.228 0 1.117-.344 1.976-1.032 2.577-.688.602-1.672.903-2.953.903-1.112 0-2.01-.18-2.693-.54v-1.826c.36.192.779.349 1.257.472.479.119.932.178 1.361.178 1.289 0 1.934-.529 1.934-1.586 0-1.007-.667-1.511-2.003-1.511-.241 0-.508.025-.799.075a5.503 5.503 0 00-.711.151l-.841-.451.376-5.093h5.421v1.791h-3.569l-.184 1.962.239-.048a4.69 4.69 0 011.032-.096zm11.293 1.388c0 1.745-.287 3.037-.861 3.876-.57.838-1.449 1.258-2.639 1.258-1.153 0-2.023-.433-2.611-1.299-.583-.866-.875-2.144-.875-3.835 0-1.764.285-3.063.854-3.897.57-.838 1.447-1.257 2.632-1.257 1.153 0 2.024.437 2.612 1.312.592.875.888 2.156.888 3.842zm-4.887 0c0 1.226.104 2.105.314 2.639.214.528.572.793 1.073.793.492 0 .848-.269 1.067-.807.218-.538.328-1.413.328-2.625 0-1.226-.112-2.106-.335-2.639-.219-.538-.572-.806-1.06-.806-.497 0-.852.268-1.066.806-.214.533-.321 1.413-.321 2.639zm7.546-2.003c0 .579.051 1.012.151 1.299.105.282.271.424.499.424.437 0 .656-.575.656-1.723 0-1.139-.219-1.709-.656-1.709-.228 0-.394.141-.499.424-.1.278-.151.706-.151 1.285zm3.029-.014c0 1.049-.203 1.837-.609 2.366-.405.524-1 .786-1.784.786-.752 0-1.333-.269-1.743-.807-.41-.542-.615-1.324-.615-2.345 0-2.082.786-3.124 2.358-3.124.77 0 1.361.271 1.771.814.414.538.622 1.308.622 2.31zm4.703-2.98l-5.544 9.994h-1.641l5.544-9.994h1.641zm-.732 6.986c0 .579.051 1.012.151 1.299.105.283.271.424.499.424.437 0 .656-.574.656-1.723 0-1.139-.219-1.709-.656-1.709-.228 0-.394.141-.499.424-.1.278-.151.706-.151 1.285zm3.029-.013c0 1.043-.203 1.829-.609 2.358-.405.524-1 .786-1.784.786-.752 0-1.333-.269-1.743-.807-.41-.542-.615-1.321-.615-2.337 0-2.083.786-3.125 2.358-3.125.77 0 1.361.272 1.771.814.414.538.622 1.308.622 2.311zM213.052 117.5l3.753-8.203h-4.929v-1.777h7.171v1.326l-3.78 8.654h-2.215zm13.938-4.997c0 1.745-.287 3.037-.861 3.876-.57.838-1.449 1.258-2.639 1.258-1.153 0-2.023-.433-2.611-1.299-.583-.866-.875-2.144-.875-3.835 0-1.764.285-3.063.854-3.897.57-.838 1.447-1.257 2.632-1.257 1.153 0 2.024.437 2.612 1.312.592.875.888 2.156.888 3.842zm-4.887 0c0 1.226.104 2.105.314 2.639.214.528.572.793 1.073.793.492 0 .848-.269 1.067-.807.218-.538.328-1.413.328-2.625 0-1.226-.112-2.106-.335-2.639-.219-.538-.572-.806-1.06-.806-.497 0-.852.268-1.066.806-.214.533-.321 1.413-.321 2.639zm7.546-2.003c0 .579.051 1.012.151 1.299.105.282.271.424.499.424.437 0 .656-.575.656-1.723 0-1.139-.219-1.709-.656-1.709-.228 0-.394.141-.499.424-.1.278-.151.706-.151 1.285zm3.029-.014c0 1.049-.203 1.837-.609 2.366-.405.524-1 .786-1.784.786-.752 0-1.333-.269-1.743-.807-.41-.542-.615-1.324-.615-2.345 0-2.082.786-3.124 2.358-3.124.77 0 1.361.271 1.771.814.414.538.622 1.308.622 2.31zm4.703-2.98l-5.544 9.994h-1.641l5.544-9.994h1.641zm-.732 6.986c0 .579.051 1.012.151 1.299.105.283.271.424.499.424.437 0 .656-.574.656-1.723 0-1.139-.219-1.709-.656-1.709-.228 0-.394.141-.499.424-.1.278-.151.706-.151 1.285zm3.029-.013c0 1.043-.203 1.829-.609 2.358-.405.524-1 .786-1.784.786-.752 0-1.333-.269-1.743-.807-.41-.542-.615-1.321-.615-2.337 0-2.083.786-3.125 2.358-3.125.77 0 1.361.272 1.771.814.414.538.622 1.308.622 2.311zM27.657 161.741c0 .625-.189 1.155-.567 1.593-.378.437-.91.738-1.593.902v.041c.807.101 1.417.347 1.832.739.415.387.622.911.622 1.572 0 .961-.349 1.711-1.046 2.249-.697.533-1.693.8-2.987.8-1.085 0-2.046-.18-2.885-.54v-1.798c.388.196.814.355 1.278.478.465.123.926.185 1.381.185.698 0 1.213-.119 1.545-.356.333-.237.5-.617.5-1.141 0-.47-.192-.802-.575-.998-.383-.196-.993-.294-1.832-.294h-.759v-1.62h.773c.774 0 1.34-.101 1.695-.301.36-.205.54-.554.54-1.046 0-.756-.474-1.135-1.422-1.135-.328 0-.663.055-1.005.164-.337.11-.713.299-1.128.568l-.977-1.456c.911-.657 1.998-.985 3.26-.985 1.035 0 1.85.21 2.448.629.601.419.902 1.003.902 1.75zm8.333 2.762c0 1.745-.287 3.037-.861 3.876-.57.838-1.45 1.258-2.639 1.258-1.153 0-2.023-.433-2.611-1.299-.583-.866-.875-2.144-.875-3.835 0-1.764.285-3.063.854-3.897.57-.838 1.447-1.257 2.632-1.257 1.153 0 2.024.437 2.612 1.312.592.875.888 2.156.888 3.842zm-4.888 0c0 1.226.105 2.105.315 2.639.214.528.572.793 1.073.793.492 0 .848-.269 1.067-.807.218-.538.328-1.413.328-2.625 0-1.226-.112-2.106-.335-2.639-.219-.538-.572-.806-1.06-.806-.497 0-.852.268-1.066.806-.214.533-.322 1.413-.322 2.639zm7.547-2.003c0 .579.05 1.012.15 1.299.106.282.272.424.5.424.437 0 .656-.575.656-1.723 0-1.139-.219-1.709-.656-1.709-.228 0-.394.141-.5.424-.1.278-.15.706-.15 1.285zm3.029-.014c0 1.049-.203 1.837-.609 2.366-.405.524-1 .786-1.784.786-.752 0-1.333-.269-1.743-.807-.41-.542-.615-1.324-.615-2.345 0-2.082.786-3.124 2.358-3.124.77 0 1.36.271 1.77.814.415.538.623 1.308.623 2.31zm4.703-2.98l-5.544 9.994h-1.64l5.543-9.994h1.64zm-.732 6.986c0 .579.05 1.012.15 1.299.106.283.272.424.5.424.437 0 .656-.574.656-1.723 0-1.139-.219-1.709-.656-1.709-.228 0-.394.141-.5.424-.1.278-.15.706-.15 1.285zm3.029-.013c0 1.043-.203 1.829-.609 2.358-.405.524-1 .786-1.784.786-.752 0-1.333-.269-1.743-.807-.41-.542-.615-1.321-.615-2.337 0-2.083.786-3.125 2.358-3.125.77 0 1.36.272 1.77.814.415.538.623 1.308.623 2.311zM297.006 54.772c0 1.968-.415 3.438-1.244 4.409-.83.97-2.085 1.456-3.767 1.456-.592 0-1.041-.032-1.347-.096v-1.695c.383.095.784.143 1.204.143.706 0 1.287-.102 1.743-.307.455-.21.804-.536 1.046-.978.241-.447.38-1.06.417-1.839h-.082c-.265.429-.57.73-.916.903-.347.173-.78.26-1.299.26-.871 0-1.557-.279-2.058-.835-.501-.56-.752-1.337-.752-2.33 0-1.072.303-1.917.909-2.537.611-.624 1.44-.936 2.489-.936.738 0 1.383.173 1.934.52.556.346.982.85 1.279 1.51.296.656.444 1.44.444 2.352zm-3.616-2.687c-.438 0-.78.15-1.026.451-.246.3-.369.734-.369 1.299 0 .483.112.866.335 1.148.223.283.563.424 1.019.424.428 0 .795-.139 1.1-.417.306-.282.458-.606.458-.97 0-.543-.143-1-.43-1.375-.283-.373-.645-.56-1.087-.56zm11.6 3.418c0 1.745-.287 3.037-.861 3.876-.57.838-1.449 1.258-2.639 1.258-1.153 0-2.023-.433-2.611-1.3-.583-.865-.875-2.143-.875-3.834 0-1.764.285-3.063.854-3.897.57-.838 1.447-1.257 2.632-1.257 1.153 0 2.024.437 2.612 1.312.592.875.888 2.156.888 3.842zm-4.887 0c0 1.226.104 2.105.314 2.639.214.528.572.793 1.073.793.492 0 .848-.27 1.067-.807.218-.538.328-1.413.328-2.625 0-1.226-.112-2.105-.335-2.639-.219-.537-.572-.806-1.06-.806-.497 0-.852.269-1.066.806-.214.534-.321 1.413-.321 2.639zm7.546-2.003c0 .579.051 1.012.151 1.299.105.282.271.424.499.424.437 0 .656-.575.656-1.723 0-1.14-.219-1.709-.656-1.709-.228 0-.394.141-.499.424-.1.278-.151.706-.151 1.285zm3.029-.014c0 1.049-.203 1.837-.609 2.366-.405.524-1 .786-1.784.786-.752 0-1.333-.27-1.743-.807-.41-.542-.615-1.324-.615-2.345 0-2.082.786-3.124 2.358-3.124.77 0 1.361.271 1.771.814.414.538.622 1.308.622 2.31zm4.703-2.98l-5.544 9.994h-1.641l5.544-9.994h1.641zm-.732 6.986c0 .579.051 1.012.151 1.299.105.283.271.424.499.424.437 0 .656-.574.656-1.723 0-1.14-.219-1.709-.656-1.709-.228 0-.394.142-.499.424-.1.278-.151.706-.151 1.285zm3.029-.014c0 1.044-.203 1.83-.609 2.359-.405.524-1 .786-1.784.786-.752 0-1.333-.269-1.743-.807-.41-.542-.615-1.321-.615-2.338 0-2.082.786-3.123 2.358-3.123.77 0 1.361.27 1.771.813.414.538.622 1.308.622 2.31z" fill="#969696"/></svg>