<svg width="1440" height="696" fill="none" xmlns="http://www.w3.org/2000/svg"><path d="M196.922 593.278L0 696h1440V0l-58.97 141.572-55.48 55.538-39.49 105.521-37.49 25.918h-53.48l-59.48 44.43h-71.48l-152.446 69.422-98.967 25.918-63.479 25.917H648.271l-65.478 65.72h-118.96l-120.46 33.322H196.922z" fill="#fff"/><path d="M1379.87 178.18c0 3.375-.71 5.894-2.14 7.558-1.42 1.664-3.57 2.496-6.45 2.496-1.02 0-1.79-.054-2.31-.164v-2.906c.65.164 1.34.246 2.06.246 1.21 0 2.21-.176 2.99-.527a3.79 3.79 0 001.79-1.676c.42-.766.65-1.816.72-3.152h-.14c-.46.734-.98 1.25-1.57 1.547-.6.296-1.34.445-2.23.445-1.49 0-2.67-.477-3.53-1.43-.86-.961-1.29-2.293-1.29-3.996 0-1.836.52-3.285 1.56-4.348 1.05-1.07 2.47-1.605 4.27-1.605 1.26 0 2.37.297 3.31.891.96.593 1.69 1.457 2.2 2.589.5 1.125.76 2.469.76 4.032zm-6.2-4.606c-.75 0-1.34.258-1.76.774-.42.515-.63 1.257-.63 2.226 0 .828.19 1.485.57 1.969.38.484.97.727 1.75.727.73 0 1.36-.239 1.88-.715.53-.485.79-1.039.79-1.664 0-.93-.25-1.715-.74-2.356-.48-.64-1.1-.961-1.86-.961zm19.88 5.86c0 2.992-.49 5.207-1.47 6.644-.98 1.438-2.49 2.156-4.53 2.156-1.97 0-3.46-.742-4.47-2.226-1-1.485-1.5-3.676-1.5-6.574 0-3.024.49-5.25 1.46-6.68.98-1.438 2.48-2.156 4.51-2.156 1.98 0 3.47.75 4.48 2.25 1.02 1.5 1.52 3.695 1.52 6.586zm-8.37 0c0 2.101.18 3.609.53 4.523.37.906.99 1.359 1.84 1.359.85 0 1.46-.461 1.83-1.382.38-.922.57-2.422.57-4.5 0-2.102-.2-3.61-.58-4.524-.37-.922-.98-1.383-1.82-1.383-.85 0-1.46.461-1.82 1.383-.37.914-.55 2.422-.55 4.524zm12.93-3.434c0 .992.09 1.734.26 2.227.18.484.47.726.86.726.75 0 1.12-.984 1.12-2.953 0-1.953-.37-2.93-1.12-2.93-.39 0-.68.242-.86.727-.17.476-.26 1.211-.26 2.203zm5.19-.023c0 1.796-.34 3.148-1.04 4.054-.69.899-1.71 1.348-3.06 1.348-1.29 0-2.28-.461-2.99-1.383-.7-.93-1.05-2.269-1.05-4.019 0-3.571 1.35-5.356 4.04-5.356 1.32 0 2.34.465 3.04 1.395.71.922 1.06 2.242 1.06 3.961zm8.07-5.11L1401.86 188h-2.81l9.5-17.133h2.82zm-1.26 11.977c0 .992.09 1.734.26 2.226.18.485.47.727.86.727.75 0 1.12-.985 1.12-2.953 0-1.953-.37-2.93-1.12-2.93-.39 0-.68.242-.86.727-.17.476-.26 1.211-.26 2.203zm5.19-.024c0 1.789-.34 3.137-1.04 4.043-.69.899-1.71 1.348-3.06 1.348-1.29 0-2.28-.461-2.99-1.383-.7-.93-1.05-2.266-1.05-4.008 0-3.57 1.35-5.355 4.04-5.355 1.32 0 2.34.465 3.04 1.394.71.922 1.06 2.243 1.06 3.961zM732.195 522.055c1.657 0 2.973.465 3.95 1.394.984.93 1.476 2.203 1.476 3.821 0 1.914-.59 3.386-1.769 4.418-1.18 1.031-2.868 1.546-5.063 1.546-1.906 0-3.445-.308-4.617-.925v-3.129c.617.328 1.336.597 2.156.808a9.72 9.72 0 002.332.305c2.211 0 3.317-.906 3.317-2.719 0-1.726-1.145-2.59-3.434-2.59-.414 0-.871.043-1.371.129-.5.078-.906.164-1.219.258l-1.441-.773.644-8.731h9.293v3.071h-6.117l-.316 3.363.41-.082c.476-.11 1.066-.164 1.769-.164zm19.36 2.379c0 2.992-.493 5.207-1.477 6.644-.976 1.438-2.484 2.156-4.523 2.156-1.977 0-3.469-.742-4.477-2.226-1-1.485-1.5-3.676-1.5-6.574 0-3.024.488-5.25 1.465-6.68.977-1.438 2.48-2.156 4.512-2.156 1.976 0 3.468.75 4.476 2.25 1.016 1.5 1.524 3.695 1.524 6.586zm-8.379 0c0 2.101.179 3.609.539 4.523.367.906.98 1.359 1.84 1.359.843 0 1.453-.461 1.828-1.382.375-.922.562-2.422.562-4.5 0-2.102-.191-3.61-.574-4.524-.375-.922-.98-1.383-1.816-1.383-.852 0-1.461.461-1.828 1.383-.368.914-.551 2.422-.551 4.524zM756.113 521c0 .992.086 1.734.258 2.227.18.484.465.726.856.726.75 0 1.125-.984 1.125-2.953 0-1.953-.375-2.93-1.125-2.93-.391 0-.676.242-.856.727-.172.476-.258 1.211-.258 2.203zm5.192-.023c0 1.796-.348 3.148-1.043 4.054-.696.899-1.715 1.348-3.059 1.348-1.289 0-2.285-.461-2.988-1.383-.703-.93-1.055-2.269-1.055-4.019 0-3.571 1.348-5.356 4.043-5.356 1.32 0 2.332.465 3.035 1.395.711.922 1.067 2.242 1.067 3.961zm8.062-5.11L759.863 533h-2.812l9.504-17.133h2.812zm-1.254 11.977c0 .992.086 1.734.258 2.226.18.485.465.727.856.727.75 0 1.125-.985 1.125-2.953 0-1.953-.375-2.93-1.125-2.93-.391 0-.676.242-.856.727-.172.476-.258 1.211-.258 2.203zm5.192-.024c0 1.789-.348 3.137-1.043 4.043-.696.899-1.715 1.348-3.059 1.348-1.289 0-2.285-.461-2.988-1.383-.703-.93-1.055-2.266-1.055-4.008 0-3.57 1.348-5.355 4.043-5.355 1.32 0 2.332.465 3.035 1.394.711.922 1.067 2.243 1.067 3.961zM1117.66 416l6.43-14.062h-8.45v-3.047h12.3v2.273L1121.46 416h-3.8zm23.89-8.566c0 2.992-.49 5.207-1.47 6.644-.98 1.438-2.49 2.156-4.53 2.156-1.97 0-3.46-.742-4.47-2.226-1-1.485-1.5-3.676-1.5-6.574 0-3.024.49-5.25 1.46-6.68.98-1.438 2.48-2.156 4.51-2.156 1.98 0 3.47.75 4.48 2.25 1.02 1.5 1.52 3.695 1.52 6.586zm-8.37 0c0 2.101.18 3.609.53 4.523.37.906.99 1.359 1.84 1.359.85 0 1.46-.461 1.83-1.382.38-.922.57-2.422.57-4.5 0-2.102-.2-3.61-.58-4.524-.37-.922-.98-1.383-1.82-1.383-.85 0-1.46.461-1.82 1.383-.37.914-.55 2.422-.55 4.524zm12.93-3.434c0 .992.09 1.734.26 2.227.18.484.47.726.86.726.75 0 1.12-.984 1.12-2.953 0-1.953-.37-2.93-1.12-2.93-.39 0-.68.242-.86.727-.17.476-.26 1.211-.26 2.203zm5.19-.023c0 1.796-.34 3.148-1.04 4.054-.69.899-1.71 1.348-3.06 1.348-1.29 0-2.28-.461-2.99-1.383-.7-.93-1.05-2.269-1.05-4.019 0-3.571 1.35-5.356 4.04-5.356 1.32 0 2.34.465 3.04 1.395.71.922 1.06 2.242 1.06 3.961zm8.07-5.11L1149.86 416h-2.81l9.5-17.133h2.82zm-1.26 11.977c0 .992.09 1.734.26 2.226.18.485.47.727.86.727.75 0 1.12-.985 1.12-2.953 0-1.953-.37-2.93-1.12-2.93-.39 0-.68.242-.86.727-.17.476-.26 1.211-.26 2.203zm5.19-.024c0 1.789-.34 3.137-1.04 4.043-.69.899-1.71 1.348-3.06 1.348-1.29 0-2.28-.461-2.99-1.383-.7-.93-1.05-2.266-1.05-4.008 0-3.57 1.35-5.355 4.04-5.355 1.32 0 2.34.465 3.04 1.394.71.922 1.06 2.243 1.06 3.961zM192.27 630.699c0 1.071-.325 1.981-.973 2.731-.649.75-1.559 1.265-2.731 1.547v.07c1.383.172 2.43.594 3.141 1.265.711.665 1.066 1.563 1.066 2.696 0 1.648-.597 2.933-1.793 3.855-1.195.914-2.902 1.371-5.121 1.371-1.859 0-3.507-.308-4.945-.925v-3.082c.664.335 1.395.609 2.191.82a9.22 9.22 0 002.368.316c1.195 0 2.078-.203 2.648-.609.57-.406.856-1.059.856-1.957 0-.805-.329-1.375-.985-1.711-.656-.336-1.703-.504-3.14-.504h-1.301v-2.777h1.324c1.328 0 2.297-.172 2.906-.516.617-.351.926-.949.926-1.793 0-1.297-.812-1.945-2.437-1.945-.563 0-1.137.094-1.723.281-.578.188-1.223.512-1.934.973l-1.675-2.496c1.562-1.125 3.425-1.688 5.589-1.688 1.774 0 3.172.359 4.196 1.078 1.031.719 1.547 1.719 1.547 3zm14.285 4.735c0 2.992-.493 5.207-1.477 6.644-.976 1.438-2.484 2.156-4.523 2.156-1.977 0-3.469-.742-4.477-2.226-1-1.485-1.5-3.676-1.5-6.574 0-3.024.488-5.25 1.465-6.68.977-1.438 2.48-2.156 4.512-2.156 1.976 0 3.468.75 4.476 2.25 1.016 1.5 1.524 3.695 1.524 6.586zm-8.379 0c0 2.101.179 3.609.539 4.523.367.906.98 1.359 1.84 1.359.843 0 1.453-.461 1.828-1.382.375-.922.562-2.422.562-4.5 0-2.102-.191-3.61-.574-4.524-.375-.922-.98-1.383-1.816-1.383-.852 0-1.461.461-1.828 1.383-.368.914-.551 2.422-.551 4.524zM211.113 632c0 .992.086 1.734.258 2.227.18.484.465.726.856.726.75 0 1.125-.984 1.125-2.953 0-1.953-.375-2.93-1.125-2.93-.391 0-.676.242-.856.727-.172.476-.258 1.211-.258 2.203zm5.192-.023c0 1.796-.348 3.148-1.043 4.054-.696.899-1.715 1.348-3.059 1.348-1.289 0-2.285-.461-2.988-1.383-.703-.93-1.055-2.269-1.055-4.019 0-3.571 1.348-5.356 4.043-5.356 1.32 0 2.332.465 3.035 1.395.711.922 1.067 2.242 1.067 3.961zm8.062-5.11L214.863 644h-2.812l9.504-17.133h2.812zm-1.254 11.977c0 .992.086 1.734.258 2.226.18.485.465.727.856.727.75 0 1.125-.985 1.125-2.953 0-1.953-.375-2.93-1.125-2.93-.391 0-.676.242-.856.727-.172.476-.258 1.211-.258 2.203zm5.192-.024c0 1.789-.348 3.137-1.043 4.043-.696.899-1.715 1.348-3.059 1.348-1.289 0-2.285-.461-2.988-1.383-.703-.93-1.055-2.266-1.055-4.008 0-3.57 1.348-5.355 4.043-5.355 1.32 0 2.332.465 3.035 1.394.711.922 1.067 2.243 1.067 3.961zM574.324 595.449h-2.062V599h-3.539v-3.551h-7.313v-2.519l7.512-11.063h3.34v10.77h2.062v2.812zm-5.601-2.812v-2.907c0-.484.019-1.187.058-2.109.039-.922.071-1.457.094-1.605h-.094c-.289.64-.636 1.265-1.043 1.875l-3.14 4.746h4.125zm18.832-2.203c0 2.992-.493 5.207-1.477 6.644-.976 1.438-2.484 2.156-4.523 2.156-1.977 0-3.469-.742-4.477-2.226-1-1.485-1.5-3.676-1.5-6.574 0-3.024.488-5.25 1.465-6.68.977-1.438 2.48-2.156 4.512-2.156 1.976 0 3.468.75 4.476 2.25 1.016 1.5 1.524 3.695 1.524 6.586zm-8.379 0c0 2.101.179 3.609.539 4.523.367.906.98 1.359 1.84 1.359.843 0 1.453-.461 1.828-1.382.375-.922.562-2.422.562-4.5 0-2.102-.191-3.61-.574-4.524-.375-.922-.98-1.383-1.816-1.383-.852 0-1.461.461-1.828 1.383-.368.914-.551 2.422-.551 4.524zM592.113 587c0 .992.086 1.734.258 2.227.18.484.465.726.856.726.75 0 1.125-.984 1.125-2.953 0-1.953-.375-2.93-1.125-2.93-.391 0-.676.242-.856.727-.172.476-.258 1.211-.258 2.203zm5.192-.023c0 1.796-.348 3.148-1.043 4.054-.696.899-1.715 1.348-3.059 1.348-1.289 0-2.285-.461-2.988-1.383-.703-.93-1.055-2.269-1.055-4.019 0-3.571 1.348-5.356 4.043-5.356 1.32 0 2.332.465 3.035 1.395.711.922 1.067 2.242 1.067 3.961zm8.062-5.11L595.863 599h-2.812l9.504-17.133h2.812zm-1.254 11.977c0 .992.086 1.734.258 2.226.18.485.465.727.856.727.75 0 1.125-.985 1.125-2.953 0-1.953-.375-2.93-1.125-2.93-.391 0-.676.242-.856.727-.172.476-.258 1.211-.258 2.203zm5.192-.024c0 1.789-.348 3.137-1.043 4.043-.696.899-1.715 1.348-3.059 1.348-1.289 0-2.285-.461-2.988-1.383-.703-.93-1.055-2.266-1.055-4.008 0-3.57 1.348-5.355 4.043-5.355 1.32 0 2.332.465 3.035 1.394.711.922 1.067 2.243 1.067 3.961z" fill="#969696"/></svg>